REM DIRINDEX 1\2,1\3,1\4,1\5
REM DIRNAME cjc046,folder01,folder02,folder03,folder04
TITLE ""
FILE "164.mp3" MP3
  TRACK 01 AUDIO
    TITLE "0:"
    INDEX 01 00:00:00
  TRACK 02 AUDIO
    TITLE "2:cjc046_4828"
    INDEX 01 00:00:09
  TRACK 03 AUDIO
    TITLE "0:"
    INDEX 01 00:01:11
  TRACK 04 AUDIO
    TITLE "3:cjc046_4829"
    INDEX 01 00:01:34
  TRACK 05 AUDIO
    TITLE "0:"
    INDEX 01 00:02:24
  TRACK 06 AUDIO
    TITLE "4:cjc046_4830"
    INDEX 01 00:02:38
  TRACK 07 AUDIO
    TITLE "0:"
    INDEX 01 00:03:41
  TRACK 08 AUDIO
    TITLE "2:cjc046_4831"
    INDEX 01 00:04:48
  TRACK 09 AUDIO
    TITLE "0:"
    INDEX 01 00:05:67
  TRACK 10 AUDIO
    TITLE "3:cjc046_4832"
    INDEX 01 00:06:12
  TRACK 11 AUDIO
    TITLE "0:"
    INDEX 01 00:08:17
  TRACK 12 AUDIO
    TITLE "4:cjc046_4833"
    INDEX 01 00:08:34
  TRACK 13 AUDIO
    TITLE "0:"
    INDEX 01 00:09:51
  TRACK 14 AUDIO
    TITLE "2:cjc046_4834"
    INDEX 01 00:10:59
  TRACK 15 AUDIO
    TITLE "0:"
    INDEX 01 00:11:66
  TRACK 16 AUDIO
    TITLE "3:cjc046_4835"
    INDEX 01 00:12:11
  TRACK 17 AUDIO
    TITLE "0:"
    INDEX 01 00:13:02
  TRACK 18 AUDIO
    TITLE "4:cjc046_4836"
    INDEX 01 00:13:22
  TRACK 19 AUDIO
    TITLE "0:"
    INDEX 01 00:14:29
  TRACK 20 AUDIO
    TITLE "2:cjc046_4837"
    INDEX 01 00:15:36
  TRACK 21 AUDIO
    TITLE "0:"
    INDEX 01 00:16:49
  TRACK 22 AUDIO
    TITLE "3:cjc046_4838"
    INDEX 01 00:16:69
  TRACK 23 AUDIO
    TITLE "0:"
    INDEX 01 00:18:46
  TRACK 24 AUDIO
    TITLE "4:cjc046_4839"
    INDEX 01 00:18:60
  TRACK 25 AUDIO
    TITLE "0:"
    INDEX 01 00:19:73
  TRACK 26 AUDIO
    TITLE "2:cjc046_4840"
    INDEX 01 00:21:11
  TRACK 27 AUDIO
    TITLE "0:"
    INDEX 01 00:22:11
  TRACK 28 AUDIO
    TITLE "3:cjc046_4841"
    INDEX 01 00:22:29
  TRACK 29 AUDIO
    TITLE "0:"
    INDEX 01 00:23:28
  TRACK 30 AUDIO
    TITLE "4:cjc046_4842"
    INDEX 01 00:23:46
  TRACK 31 AUDIO
    TITLE "0:"
    INDEX 01 00:24:45
  TRACK 32 AUDIO
    TITLE "2:cjc046_4843"
    INDEX 01 00:25:52
  TRACK 33 AUDIO
    TITLE "0:"
    INDEX 01 00:26:69
  TRACK 34 AUDIO
    TITLE "3:cjc046_4844"
    INDEX 01 00:27:10
  TRACK 35 AUDIO
    TITLE "0:"
    INDEX 01 00:28:35
  TRACK 36 AUDIO
    TITLE "4:cjc046_4845"
    INDEX 01 00:28:51
  TRACK 37 AUDIO
    TITLE "0:"
    INDEX 01 00:29:66
  TRACK 38 AUDIO
    TITLE "2:cjc046_4846"
    INDEX 01 00:30:63
  TRACK 39 AUDIO
    TITLE "0:"
    INDEX 01 00:32:11
  TRACK 40 AUDIO
    TITLE "3:cjc046_4847"
    INDEX 01 00:32:35
  TRACK 41 AUDIO
    TITLE "0:"
    INDEX 01 00:33:69
  TRACK 42 AUDIO
    TITLE "4:cjc046_4848"
    INDEX 01 00:33:73
  TRACK 43 AUDIO
    TITLE "0:"
    INDEX 01 00:35:21
  TRACK 44 AUDIO
    TITLE "2:cjc046_4849"
    INDEX 01 00:36:25
  TRACK 45 AUDIO
    TITLE "0:"
    INDEX 01 00:37:46
  TRACK 46 AUDIO
    TITLE "3:cjc046_4850"
    INDEX 01 00:37:65
  TRACK 47 AUDIO
    TITLE "0:"
    INDEX 01 00:38:71
  TRACK 48 AUDIO
    TITLE "4:cjc046_4851"
    INDEX 01 00:39:03
  TRACK 49 AUDIO
    TITLE "0:"
    INDEX 01 00:40:26
  TRACK 50 AUDIO
    TITLE "2:cjc046_4852"
    INDEX 01 00:41:34
  TRACK 51 AUDIO
    TITLE "0:"
    INDEX 01 00:42:51
  TRACK 52 AUDIO
    TITLE "3:cjc046_4853"
    INDEX 01 00:42:68
  TRACK 53 AUDIO
    TITLE "0:"
    INDEX 01 00:44:32
  TRACK 54 AUDIO
    TITLE "4:cjc046_4854"
    INDEX 01 00:44:44
  TRACK 55 AUDIO
    TITLE "0:"
    INDEX 01 00:45:61
  TRACK 56 AUDIO
    TITLE "2:cjc046_4855"
    INDEX 01 00:46:68
  TRACK 57 AUDIO
    TITLE "0:"
    INDEX 01 00:48:14
  TRACK 58 AUDIO
    TITLE "3:cjc046_4856"
    INDEX 01 00:48:34
  TRACK 59 AUDIO
    TITLE "0:"
    INDEX 01 00:49:49
  TRACK 60 AUDIO
    TITLE "4:cjc046_4857"
    INDEX 01 00:49:63
  TRACK 61 AUDIO
    TITLE "0:"
    INDEX 01 00:51:09
  TRACK 62 AUDIO
    TITLE "2:cjc046_4858"
    INDEX 01 00:52:16
  TRACK 63 AUDIO
    TITLE "0:"
    INDEX 01 00:53:19
  TRACK 64 AUDIO
    TITLE "3:cjc046_4859"
    INDEX 01 00:53:39
  TRACK 65 AUDIO
    TITLE "0:"
    INDEX 01 00:54:58
  TRACK 66 AUDIO
    TITLE "4:cjc046_4860"
    INDEX 01 00:55:03
  TRACK 67 AUDIO
    TITLE "0:"
    INDEX 01 00:56:04
  TRACK 68 AUDIO
    TITLE "2:cjc046_4861"
    INDEX 01 00:57:13
  TRACK 69 AUDIO
    TITLE "0:"
    INDEX 01 00:58:34
  TRACK 70 AUDIO
    TITLE "3:cjc046_4862"
    INDEX 01 00:58:50
  TRACK 71 AUDIO
    TITLE "0:"
    INDEX 01 01:00:21
  TRACK 72 AUDIO
    TITLE "4:cjc046_4863"
    INDEX 01 01:00:37
  TRACK 73 AUDIO
    TITLE "0:"
    INDEX 01 01:01:60
  TRACK 74 AUDIO
    TITLE "2:cjc046_4864"
    INDEX 01 01:02:71
  TRACK 75 AUDIO
    TITLE "0:"
    INDEX 01 01:04:15
  TRACK 76 AUDIO
    TITLE "3:cjc046_4865"
    INDEX 01 01:04:35
  TRACK 77 AUDIO
    TITLE "0:"
    INDEX 01 01:06:32
  TRACK 78 AUDIO
    TITLE "4:cjc046_4866"
    INDEX 01 01:06:49
  TRACK 79 AUDIO
    TITLE "0:"
    INDEX 01 01:07:70
  TRACK 80 AUDIO
    TITLE "2:cjc046_4867"
    INDEX 01 01:09:03
  TRACK 81 AUDIO
    TITLE "0:"
    INDEX 01 01:10:12
  TRACK 82 AUDIO
    TITLE "3:cjc046_4868"
    INDEX 01 01:10:26
  TRACK 83 AUDIO
    TITLE "0:"
    INDEX 01 01:11:37
  TRACK 84 AUDIO
    TITLE "4:cjc046_4869"
    INDEX 01 01:11:64
  TRACK 85 AUDIO
    TITLE "0:"
    INDEX 01 01:12:71
  TRACK 86 AUDIO
    TITLE "2:cjc046_4870"
    INDEX 01 01:14:06
  TRACK 87 AUDIO
    TITLE "0:"
    INDEX 01 01:15:11
  TRACK 88 AUDIO
    TITLE "3:cjc046_4871"
    INDEX 01 01:15:31
  TRACK 89 AUDIO
    TITLE "0:"
    INDEX 01 01:17:06
  TRACK 90 AUDIO
    TITLE "4:cjc046_4872"
    INDEX 01 01:17:18
  TRACK 91 AUDIO
    TITLE "0:"
    INDEX 01 01:18:23
  TRACK 92 AUDIO
    TITLE "2:cjc046_4873"
    INDEX 01 01:19:34
  TRACK 93 AUDIO
    TITLE "0:"
    INDEX 01 01:20:46
  TRACK 94 AUDIO
    TITLE "3:cjc046_4874"
    INDEX 01 01:20:63
  TRACK 95 AUDIO
    TITLE "0:"
    INDEX 01 01:22:15
  TRACK 96 AUDIO
    TITLE "4:cjc046_4875"
    INDEX 01 01:22:37
  TRACK 97 AUDIO
    TITLE "0:"
    INDEX 01 01:23:48
